<svg width="503" height="551" viewBox="0 0 503 551" fill="none" xmlns="http://www.w3.org/2000/svg">
<path d="M49.404 103.299L49.403 103.3C19.7638 120.386 1.5 152.031 1.5 186.248V364.173C1.5 398.389 19.7628 429.991 49.4038 447.122C49.404 447.122 49.4042 447.122 49.4044 447.122L203.467 536.062L203.467 536.063C233.107 553.193 269.59 553.193 299.23 536.063L299.23 536.062L453.293 447.122L453.294 447.121C482.933 430.035 501.197 398.39 501.197 364.173V186.248C501.197 152.032 482.934 120.43 453.293 103.299C453.293 103.299 453.293 103.299 453.293 103.299L299.231 14.3152L49.404 103.299ZM49.404 103.299L203.467 14.3147M49.404 103.299L203.467 14.3147M203.467 14.3147C233.062 -2.77117 269.589 -2.77193 299.23 14.3146L203.467 14.3147Z" stroke="#FF007F" stroke-width="3"/>
</svg>
