<svg width="367" height="401" viewBox="0 0 367 401" fill="none" xmlns="http://www.w3.org/2000/svg">
<path d="M170.57 341.849C170.57 330.377 164.332 319.809 154.25 314.283L0 229.644V265.839C0 291.208 13.5409 314.638 35.5165 327.339L147.98 392.264C155.09 396.368 162.717 399.115 170.57 400.569V341.882V341.849Z" fill="#F6F6F6"/>
<path d="M170.57 293.987V230.258C170.57 218.785 164.332 208.218 154.25 202.692L2.03598 119.152C0.710976 124.581 0 130.204 0 135.957V200.139L166.692 291.661C168.017 292.404 169.309 293.179 170.57 294.02V293.987Z" fill="#F6F6F6"/>
<path d="M170.566 182.397V117.278C170.566 105.805 164.329 95.2375 154.246 89.7436L79.8197 48.8948L35.4806 74.4899C26.2379 79.8222 18.5465 87.0613 12.6648 95.5284L166.688 180.07C168.013 180.813 169.306 181.589 170.566 182.429V182.397Z" fill="#F6F6F6"/>
<path d="M183.498 81.0513C188.087 75.4281 193.742 70.6452 200.303 67.058L260.994 33.7391L219.014 9.50123C197.039 -3.16708 169.957 -3.16708 148.014 9.50123L106.034 33.7391L166.725 67.058C173.286 70.6452 178.941 75.4604 183.53 81.0513H183.498Z" fill="#F6F6F6"/>
<path d="M196.43 117.28V182.399C197.691 181.591 198.983 180.783 200.308 180.04L354.299 95.4986C348.418 87.0315 340.694 79.7925 331.484 74.4601L287.177 48.865L212.75 89.7138C202.7 95.24 196.43 105.775 196.43 117.248V117.28Z" fill="#F6F6F6"/>
<path d="M196.43 230.258V293.987C197.691 293.18 198.983 292.372 200.308 291.628L367 200.106V135.925C367 130.204 366.289 124.549 364.964 119.12L212.75 202.659C202.7 208.186 196.43 218.721 196.43 230.226V230.258Z" fill="#F6F6F6"/>
<path d="M196.43 341.851V400.538C204.251 399.084 211.91 396.337 219.02 392.233L331.484 327.308C353.459 314.64 367 291.177 367 265.808V229.613L212.75 314.284C202.7 319.81 196.43 330.346 196.43 341.851Z" fill="#F6F6F6"/>
</svg>
